<svg xmlns="http://www.w3.org/2000/svg" xmlns:xlink="http://www.w3.org/1999/xlink" width="300px" height="101px" viewBox="0 0 400 135">
    <g style="" id="69162344-0b13-4e66-ae8a-340dd32fdc36">
<g style=""><path d="M-36.56897 -36.33773L-23.86837 -36.33773L-15.10933 12.71286L-6.43789 -36.33773L5.99994 -36.33773L5.99994 27.51563L-1.35765 27.51563L-1.44524 -23.024L-1.27006 -27.66629L-1.62042 -27.66629L-2.32114 -23.11159L-11.51813 27.51563L-18.96331 27.51563L-28.24789 -23.11159L-28.86102 -27.66629L-29.29897 -27.66629L-29.12379 -23.024L-29.12379 27.51563L-36.56897 27.51563Z" fill="rgb(255, 255, 255)" transform="matrix(0.999998 -0.002074 0.002074 0.999998 335.398566 70.793671)"/><path d="M17.38668 -36.33773L25.62018 -36.33773L25.62018 20.59599L41.38644 20.59599L41.38644 27.51563L17.38668 27.51563Z" fill="rgb(255, 255, 255)" transform="matrix(0.999998 -0.002074 0.002074 0.999998 335.398566 70.793671)"/></g></g>
<g id="a7966428-6b18-4c66-8783-0a6ae4e5e943">
<g style="">
		<g id="a7966428-6b18-4c66-8783-0a6ae4e5e943-child-0">
<path style="stroke: rgb(193,193,193); stroke-width: 0; stroke-dasharray: none; stroke-linecap: butt; stroke-dashoffset: 0; stroke-linejoin: miter; stroke-miterlimit: 4; fill: rgb(255,255,255); fill-rule: nonzero; opacity: 1;" transform="matrix(0.187905 0 0 0.187903 53.90678 66.330832) matrix(1 0 0 1 0 0)  translate(-198.719503, -328.751629)" d="M 171.50 655.49 C 129.26 648.74 93.26 631.15 63.27 602.60 C 36.91 577.50 17.26 544.09 7.65 508.00 C 4.25 495.27 0.19 467.00 1.75 467.00 C 2.04 467.00 9.75 474.73 18.89 484.18 C 40.50 506.53 59.62 521.78 76.97 530.50 C 125.81 555.07 181.21 556.15 225.94 533.40 C 277.91 506.97 297.56 449.78 273.83 394.00 C 268.83 382.25 260.53 367.73 248.72 350.08 C 243.75 342.65 238.21 333.40 236.41 329.53 L 233.15 322.50 L 231.01 327.49 C 224.95 341.61 208.50 360.20 192.57 370.95 C 188.25 373.87 177.91 379.87 169.60 384.28 C 143.36 398.21 135.80 404.54 128.77 418.45 C 124.34 427.21 121.43 436.39 119.40 448.00 C 118.42 453.62 117.14 458.38 116.56 458.58 C 113.28 459.71 85.81 463.00 79.70 462.99 C 41.00 462.91 10.87 425.25 20.17 388.59 C 20.72 386.44 26.58 371.59 33.21 355.59 C 39.83 339.59 51.68 310.98 59.53 292.00 C 67.38 273.02 79.54 243.64 86.56 226.70 L 99.31 195.90 L 95.81 192.20 C 93.89 190.17 86.37 182.22 79.11 174.54 C 53.95 147.94 39.94 122.03 34.00 91.16 C 29.03 65.35 31.40 33.95 40.30 7.56 L 42.57 0.84 L 84.03 42.67 C 123.30 82.28 152.16 111.57 209.52 170.00 C 223.28 184.02 247.62 208.77 263.60 225.00 C 301.71 263.70 311.60 274.18 323.12 288.00 C 358.66 330.65 381.82 373.06 391.05 412.36 C 401.88 458.53 394.81 511.47 372.24 553.00 C 342.92 606.98 293.08 643.06 231.85 654.64 C 219.98 656.88 183.45 657.40 171.50 655.49 Z M 254.52 171.02 L 220.54 137.03 L 237.55 119.77 C 246.91 110.27 277.13 79.68 304.72 51.78 L 354.88 1.06 L 356.82 6.28 C 367.75 35.60 369.15 72.84 360.51 104.57 C 354.86 125.29 343.54 146.76 329.83 162.74 C 323.65 169.94 289.90 205.00 289.15 205.00 C 288.79 205.00 273.20 189.71 254.52 171.02 Z" stroke-linecap="round"/>
</g>
</g>
</g>
<g style="" id="41f148e5-d907-4520-8d06-b7606af3dd5a">
<g style=""><path d="M-144.08265 4.53878L-148.09927 -6.35522L-145.05068 -6.35522L-143.01347 0.42102L-140.90402 -6.35522L-139.08354 -6.35522L-137.04633 0.42102L-134.89354 -6.35522L-131.8305 -6.35522L-135.96271 4.53878L-138.12995 4.53878L-139.99378 -1.87625L-141.95875 4.53878Z" fill="rgb(55, 181, 254)" transform="matrix(1 0 0 1 254.71307 118.013465)"/><path d="M-125.07261 4.72661Q-126.64748 4.72661 -127.99117 4.01865Q-129.33486 3.31068 -130.12951 2.02478Q-130.92417 0.73889 -130.92417 -0.90822Q-130.92417 -2.49753 -130.12229 -3.79065Q-129.32041 -5.08377 -127.97672 -5.81341Q-126.63303 -6.54305 -125.02927 -6.54305Q-123.43996 -6.54305 -122.09627 -5.81341Q-120.75258 -5.08377 -119.95792 -3.79065Q-119.16326 -2.49753 -119.16326 -0.87932Q-119.16326 0.73889 -119.95792 2.01756Q-120.75258 3.29623 -122.10349 4.01142Q-123.4544 4.72661 -125.07261 4.72661ZM-125.05816 2.09702Q-124.23461 2.09702 -123.55554 1.70692Q-122.87647 1.31682 -122.49359 0.63775Q-122.11071 -0.04132 -122.11071 -0.89377Q-122.11071 -1.73177 -122.49359 -2.42529Q-122.87647 -3.11881 -123.54109 -3.51613Q-124.20572 -3.91346 -125.04372 -3.91346Q-125.86727 -3.91346 -126.53911 -3.51613Q-127.21096 -3.11881 -127.59384 -2.42529Q-127.97672 -1.73177 -127.97672 -0.90822Q-127.97672 -0.04132 -127.58661 0.64497Q-127.19651 1.33126 -126.53189 1.71414Q-125.86727 2.09702 -125.05816 2.09702Z" fill="rgb(55, 181, 254)" transform="matrix(1 0 0 1 254.71307 118.013465)"/><path d="M-116.66371 4.53878L-116.66371 -6.35522L-113.15278 -6.35522Q-111.86688 -6.35522 -110.8844 -5.98679Q-109.90191 -5.61836 -109.34566 -4.83093Q-108.7894 -4.0435 -108.7894 -2.82984Q-108.7894 -2.02074 -109.12171 -1.37056Q-109.45402 -0.72039 -110.14031 -0.22193Q-110.8266 0.27654 -111.88133 0.60885L-113.8174 0.60885L-113.8174 4.53878ZM-111.26005 4.53878L-113.73071 0.34878L-111.18781 -0.14246L-107.86471 4.53878ZM-113.41285 -1.45725Q-112.84936 -1.45725 -112.46648 -1.58006Q-112.08361 -1.70287 -111.85966 -1.99184Q-111.63571 -2.28081 -111.63571 -2.7576Q-111.63571 -3.21994 -111.84521 -3.50169Q-112.05471 -3.78343 -112.42314 -3.89901Q-112.79157 -4.0146 -113.35505 -4.0146L-113.8174 -4.0146L-113.8174 -1.45725Z" fill="rgb(55, 181, 254)" transform="matrix(1 0 0 1 254.71307 118.013465)"/><path d="M-106.01533 4.53878L-106.01533 -6.35522L-103.15457 -6.35522L-103.19791 -1.80401L-99.88925 -6.35522L-96.5228 -6.35522L-101.31963 -0.1858L-101.31963 -2.25191L-96.32053 4.53878L-99.83146 4.53878L-103.53022 -1.0816L-102.30212 -0.56146L-103.19791 -0.22915L-103.15457 4.53878Z" fill="rgb(55, 181, 254)" transform="matrix(1 0 0 1 254.71307 118.013465)"/><path d="M-91.01801 4.72661Q-91.9427 4.72661 -92.71568 4.48821Q-93.48866 4.24982 -94.08104 3.82359Q-94.67342 3.39737 -95.07797 2.81944L-93.66204 1.0712Q-93.30084 1.51909 -92.89628 1.82251Q-92.49173 2.12592 -92.06551 2.27763Q-91.63928 2.42933 -91.22028 2.42933Q-90.84463 2.42933 -90.57011 2.30652Q-90.29559 2.18371 -90.15111 1.95254Q-90.00663 1.72137 -90.00663 1.40351Q-90.00663 1.11454 -90.14389 0.89782Q-90.28114 0.68109 -90.57011 0.50049Q-90.85908 0.31989 -91.39366 0.10316Q-91.43701 0.08871 -91.48758 0.06704Q-91.53815 0.04537 -91.59594 0.01647Q-92.53508 -0.34474 -93.17803 -0.74206Q-93.82097 -1.13939 -94.19663 -1.75344Q-94.57229 -2.3675 -94.57229 -3.24884Q-94.57229 -4.20243 -94.08827 -4.95374Q-93.60425 -5.70505 -92.74458 -6.12405Q-91.8849 -6.54305 -90.80128 -6.54305Q-89.65987 -6.54305 -88.80742 -6.18907Q-87.95497 -5.83508 -87.29035 -5.17046L-88.67739 -3.32108Q-89.03859 -3.75453 -89.52261 -4.00015Q-90.00663 -4.24577 -90.58456 -4.24577Q-90.90242 -4.24577 -91.14082 -4.13741Q-91.37921 -4.02905 -91.51647 -3.84122Q-91.65373 -3.65339 -91.65373 -3.40777Q-91.65373 -3.1766 -91.50202 -2.98877Q-91.35032 -2.80094 -91.03968 -2.63479Q-90.72904 -2.46863 -90.13666 -2.22301Q-90.09332 -2.20856 -90.04275 -2.19412Q-89.99218 -2.17967 -89.93439 -2.16522Q-88.99525 -1.80401 -88.36675 -1.36334Q-87.73825 -0.92267 -87.40594 -0.27972Q-87.07363 0.36323 -87.07363 1.28792Q-87.07363 2.31375 -87.57932 3.09396Q-88.08501 3.87416 -88.9808 4.30039Q-89.87659 4.72661 -91.01801 4.72661Z" fill="rgb(55, 181, 254)" transform="matrix(1 0 0 1 254.71307 118.013465)"/><path d="M-83.0859 4.72661Q-83.5049 4.72661 -83.88055 4.54601Q-84.25621 4.3654 -84.48738 4.04032Q-84.71856 3.71523 -84.71856 3.29623Q-84.71856 2.87723 -84.48738 2.54492Q-84.25621 2.21261 -83.88055 2.02478Q-83.5049 1.83695 -83.0859 1.83695Q-82.6669 1.83695 -82.29124 2.02478Q-81.91559 2.21261 -81.69164 2.54492Q-81.46769 2.87723 -81.46769 3.29623Q-81.46769 3.71523 -81.69164 4.04032Q-81.91559 4.3654 -82.29124 4.54601Q-82.6669 4.72661 -83.0859 4.72661Z" fill="rgb(55, 181, 254)" transform="matrix(1 0 0 1 254.71307 118.013465)"/><path d="" fill="rgb(55, 181, 254)" transform="matrix(1 0 0 1 254.71307 118.013465)"/><path d="M-70.25582 4.72661Q-71.18051 4.72661 -71.9535 4.48821Q-72.72648 4.24982 -73.31886 3.82359Q-73.91124 3.39737 -74.31579 2.81944L-72.89986 1.0712Q-72.53865 1.51909 -72.1341 1.82251Q-71.72955 2.12592 -71.30332 2.27763Q-70.8771 2.42933 -70.4581 2.42933Q-70.08244 2.42933 -69.80793 2.30652Q-69.53341 2.18371 -69.38893 1.95254Q-69.24444 1.72137 -69.24444 1.40351Q-69.24444 1.11454 -69.3817 0.89782Q-69.51896 0.68109 -69.80793 0.50049Q-70.09689 0.31989 -70.63148 0.10316Q-70.67482 0.08871 -70.72539 0.06704Q-70.77596 0.04537 -70.83375 0.01647Q-71.77289 -0.34474 -72.41584 -0.74206Q-73.05879 -1.13939 -73.43445 -1.75344Q-73.8101 -2.3675 -73.8101 -3.24884Q-73.8101 -4.20243 -73.32608 -4.95374Q-72.84207 -5.70505 -71.98239 -6.12405Q-71.12272 -6.54305 -70.0391 -6.54305Q-68.89768 -6.54305 -68.04524 -6.18907Q-67.19279 -5.83508 -66.52817 -5.17046L-67.9152 -3.32108Q-68.27641 -3.75453 -68.76043 -4.00015Q-69.24444 -4.24577 -69.82237 -4.24577Q-70.14024 -4.24577 -70.37863 -4.13741Q-70.61703 -4.02905 -70.75429 -3.84122Q-70.89155 -3.65339 -70.89155 -3.40777Q-70.89155 -3.1766 -70.73984 -2.98877Q-70.58813 -2.80094 -70.2775 -2.63479Q-69.96686 -2.46863 -69.37448 -2.22301Q-69.33113 -2.20856 -69.28056 -2.19412Q-69.23 -2.17967 -69.1722 -2.16522Q-68.23306 -1.80401 -67.60456 -1.36334Q-66.97606 -0.92267 -66.64375 -0.27972Q-66.31144 0.36323 -66.31144 1.28792Q-66.31144 2.31375 -66.81713 3.09396Q-67.32282 3.87416 -68.21862 4.30039Q-69.11441 4.72661 -70.25582 4.72661Z" fill="rgb(55, 181, 254)" transform="matrix(1 0 0 1 254.71307 118.013465)"/><path d="M-63.78299 4.53878L-63.78299 -6.35522L-60.93668 -6.35522L-60.93668 4.53878Z" fill="rgb(55, 181, 254)" transform="matrix(1 0 0 1 254.71307 118.013465)"/><path d="M-52.55668 4.53878L-54.78171 -1.70287L-55.6775 4.53878L-58.52382 4.53878L-56.58775 -6.35522L-54.11709 -6.35522L-51.74757 0.16095L-49.33471 -6.35522L-46.86405 -6.35522L-45.02912 4.53878L-47.91878 4.53878L-48.71343 -1.70287L-51.08295 4.53878Z" fill="rgb(55, 181, 254)" transform="matrix(1 0 0 1 254.71307 118.013465)"/><path d="M-42.61626 4.53878L-42.61626 -6.35522L-39.09087 -6.35522Q-37.76163 -6.35522 -36.77193 -5.96512Q-35.78222 -5.57501 -35.22596 -4.78036Q-34.6697 -3.9857 -34.6697 -2.7865Q-34.6697 -1.64508 -35.20429 -0.82875Q-35.73887 -0.01243 -36.68524 0.40657Q-37.6316 0.82557 -38.84525 0.82557L-39.76994 0.82557L-39.76994 4.53878ZM-39.20646 -1.45725Q-38.65743 -1.45725 -38.28177 -1.59451Q-37.90612 -1.73177 -37.69662 -2.02796Q-37.48712 -2.32415 -37.48712 -2.7865Q-37.48712 -3.23439 -37.70384 -3.50891Q-37.92056 -3.78343 -38.30344 -3.90624Q-38.68632 -4.02905 -39.23536 -4.02905L-39.76994 -4.02905L-39.76994 -1.45725Z" fill="rgb(55, 181, 254)" transform="matrix(1 0 0 1 254.71307 118.013465)"/><path d="M-32.45911 4.53878L-32.45911 -6.35522L-29.6128 -6.35522L-29.6128 1.92364L-26.34749 1.92364L-26.34749 4.53878Z" fill="rgb(55, 181, 254)" transform="matrix(1 0 0 1 254.71307 118.013465)"/><path d="M-22.64952 4.53878L-22.64952 -0.15691L-26.34828 -6.35522L-23.03962 -6.35522L-21.20469 -2.77205L-19.42755 -6.35522L-16.11889 -6.35522L-19.78876 -0.15691L-19.78876 4.53878Z" fill="rgb(55, 181, 254)" transform="matrix(1 0 0 1 254.71307 118.013465)"/><path d="M-14.45813 4.72661Q-14.87713 4.72661 -15.25279 4.54601Q-15.62844 4.3654 -15.85961 4.04032Q-16.09079 3.71523 -16.09079 3.29623Q-16.09079 2.87723 -15.85961 2.54492Q-15.62844 2.21261 -15.25279 2.02478Q-14.87713 1.83695 -14.45813 1.83695Q-14.03913 1.83695 -13.66347 2.02478Q-13.28782 2.21261 -13.06387 2.54492Q-12.83992 2.87723 -12.83992 3.29623Q-12.83992 3.71523 -13.06387 4.04032Q-13.28782 4.3654 -13.66347 4.54601Q-14.03913 4.72661 -14.45813 4.72661Z" fill="rgb(55, 181, 254)" transform="matrix(1 0 0 1 254.71307 118.013465)"/><path d="" fill="rgb(55, 181, 254)" transform="matrix(1 0 0 1 254.71307 118.013465)"/><path d="M-2.63201 4.53878L-6.64864 -6.35522L-3.60005 -6.35522L-1.56284 0.42102L0.54661 -6.35522L2.36709 -6.35522L4.4043 0.42102L6.5571 -6.35522L9.62013 -6.35522L5.48792 4.53878L3.32068 4.53878L1.45685 -1.87625L-0.50811 4.53878Z" fill="rgb(55, 181, 254)" transform="matrix(1 0 0 1 254.71307 118.013465)"/><path d="M11.41172 4.53878L11.41172 -6.35522L14.25803 -6.35522L14.25803 4.53878Z" fill="rgb(55, 181, 254)" transform="matrix(1 0 0 1 254.71307 118.013465)"/><path d="M18.53472 4.53878L18.53472 -3.74008L16.20855 -3.74008L16.20855 -6.35522L23.77945 -6.35522L23.77945 -3.74008L21.45328 -3.74008L21.45328 4.53878Z" fill="rgb(55, 181, 254)" transform="matrix(1 0 0 1 254.71307 118.013465)"/><path d="M25.72997 4.53878L25.72997 -6.35522L28.57628 -6.35522L28.57628 -2.42529L32.01497 -2.42529L32.01497 -6.35522L34.86128 -6.35522L34.86128 4.53878L32.01497 4.53878L32.01497 0.1754L28.57628 0.1754L28.57628 4.53878Z" fill="rgb(55, 181, 254)" transform="matrix(1 0 0 1 254.71307 118.013465)"/><path d="" fill="rgb(55, 181, 254)" transform="matrix(1 0 0 1 254.71307 118.013465)"/><path d="M42.75005 4.53878L42.75005 -6.35522L46.27543 -6.35522Q47.60467 -6.35522 48.59438 -5.96512Q49.58409 -5.57501 50.14034 -4.78036Q50.6966 -3.9857 50.6966 -2.7865Q50.6966 -1.64508 50.16202 -0.82875Q49.62743 -0.01243 48.68107 0.40657Q47.73471 0.82557 46.52105 0.82557L45.59636 0.82557L45.59636 4.53878ZM46.15984 -1.45725Q46.70888 -1.45725 47.08453 -1.59451Q47.46019 -1.73177 47.66969 -2.02796Q47.87919 -2.32415 47.87919 -2.7865Q47.87919 -3.23439 47.66246 -3.50891Q47.44574 -3.78343 47.06286 -3.90624Q46.67998 -4.02905 46.13095 -4.02905L45.59636 -4.02905L45.59636 -1.45725Z" fill="rgb(55, 181, 254)" transform="matrix(1 0 0 1 254.71307 118.013465)"/><path d="M57.38616 4.72661Q56.02802 4.72661 54.99497 4.23537Q53.96192 3.74413 53.37676 2.76164Q52.7916 1.77916 52.7916 0.33433L52.7916 -6.35522L55.71016 -6.35522L55.71016 0.04537Q55.71016 0.78223 55.89076 1.23013Q56.07137 1.67802 56.43257 1.91642Q56.79378 2.15482 57.38616 2.15482Q57.96409 2.15482 58.33252 1.91642Q58.70095 1.67802 58.88156 1.2229Q59.06216 0.76778 59.06216 0.03092L59.06216 -6.35522L61.96627 -6.35522L61.96627 0.33433Q61.96627 1.77916 61.38833 2.76164Q60.8104 3.74413 59.77735 4.23537Q58.7443 4.72661 57.38616 4.72661Z" fill="rgb(55, 181, 254)" transform="matrix(1 0 0 1 254.71307 118.013465)"/><path d="M64.82703 4.53878L64.82703 -6.35522L68.33796 -6.35522Q69.62386 -6.35522 70.60634 -5.98679Q71.58882 -5.61836 72.14508 -4.83093Q72.70134 -4.0435 72.70134 -2.82984Q72.70134 -2.02074 72.36903 -1.37056Q72.03672 -0.72039 71.35043 -0.22193Q70.66413 0.27654 69.60941 0.60885L67.67334 0.60885L67.67334 4.53878ZM70.23068 4.53878L67.76003 0.34878L70.30292 -0.14246L73.62603 4.53878ZM68.07789 -1.45725Q68.64137 -1.45725 69.02425 -1.58006Q69.40713 -1.70287 69.63108 -1.99184Q69.85503 -2.28081 69.85503 -2.7576Q69.85503 -3.21994 69.64553 -3.50169Q69.43603 -3.78343 69.0676 -3.89901Q68.69917 -4.0146 68.13568 -4.0146L67.67334 -4.0146L67.67334 -1.45725Z" fill="rgb(55, 181, 254)" transform="matrix(1 0 0 1 254.71307 118.013465)"/><path d="M75.47541 4.53878L75.47541 -6.35522L79.00079 -6.35522Q80.33003 -6.35522 81.31974 -5.96512Q82.30945 -5.57501 82.86571 -4.78036Q83.42197 -3.9857 83.42197 -2.7865Q83.42197 -1.64508 82.88738 -0.82875Q82.35279 -0.01243 81.40643 0.40657Q80.46007 0.82557 79.24641 0.82557L78.32172 0.82557L78.32172 4.53878ZM78.88521 -1.45725Q79.43424 -1.45725 79.8099 -1.59451Q80.18555 -1.73177 80.39505 -2.02796Q80.60455 -2.32415 80.60455 -2.7865Q80.60455 -3.23439 80.38783 -3.50891Q80.1711 -3.78343 79.78822 -3.90624Q79.40534 -4.02905 78.85631 -4.02905L78.32172 -4.02905L78.32172 -1.45725Z" fill="rgb(55, 181, 254)" transform="matrix(1 0 0 1 254.71307 118.013465)"/><path d="M91.00732 4.72661Q89.43245 4.72661 88.08876 4.01865Q86.74507 3.31068 85.95042 2.02478Q85.15576 0.73889 85.15576 -0.90822Q85.15576 -2.49753 85.95764 -3.79065Q86.75952 -5.08377 88.10321 -5.81341Q89.4469 -6.54305 91.05066 -6.54305Q92.63997 -6.54305 93.98366 -5.81341Q95.32735 -5.08377 96.12201 -3.79065Q96.91666 -2.49753 96.91666 -0.87932Q96.91666 0.73889 96.12201 2.01756Q95.32735 3.29623 93.97644 4.01142Q92.62552 4.72661 91.00732 4.72661ZM91.02176 2.09702Q91.84532 2.09702 92.52439 1.70692Q93.20345 1.31682 93.58633 0.63775Q93.96921 -0.04132 93.96921 -0.89377Q93.96921 -1.73177 93.58633 -2.42529Q93.20345 -3.11881 92.53883 -3.51613Q91.87421 -3.91346 91.03621 -3.91346Q90.21266 -3.91346 89.54081 -3.51613Q88.86897 -3.11881 88.48609 -2.42529Q88.10321 -1.73177 88.10321 -0.90822Q88.10321 -0.04132 88.49331 0.64497Q88.88342 1.33126 89.54804 1.71414Q90.21266 2.09702 91.02176 2.09702Z" fill="rgb(55, 181, 254)" transform="matrix(1 0 0 1 254.71307 118.013465)"/><path d="M102.89825 4.72661Q101.97356 4.72661 101.20058 4.48821Q100.4276 4.24982 99.83522 3.82359Q99.24284 3.39737 98.83829 2.81944L100.25422 1.0712Q100.61542 1.51909 101.01998 1.82251Q101.42453 2.12592 101.85075 2.27763Q102.27698 2.42933 102.69598 2.42933Q103.07163 2.42933 103.34615 2.30652Q103.62067 2.18371 103.76515 1.95254Q103.90963 1.72137 103.90963 1.40351Q103.90963 1.11454 103.77237 0.89782Q103.63512 0.68109 103.34615 0.50049Q103.05718 0.31989 102.5226 0.10316Q102.47925 0.08871 102.42868 0.06704Q102.37812 0.04537 102.32032 0.01647Q101.38118 -0.34474 100.73823 -0.74206Q100.09529 -1.13939 99.71963 -1.75344Q99.34398 -2.3675 99.34398 -3.24884Q99.34398 -4.20243 99.82799 -4.95374Q100.31201 -5.70505 101.17168 -6.12405Q102.03136 -6.54305 103.11498 -6.54305Q104.25639 -6.54305 105.10884 -6.18907Q105.96129 -5.83508 106.62591 -5.17046L105.23888 -3.32108Q104.87767 -3.75453 104.39365 -4.00015Q103.90963 -4.24577 103.3317 -4.24577Q103.01384 -4.24577 102.77544 -4.13741Q102.53705 -4.02905 102.39979 -3.84122Q102.26253 -3.65339 102.26253 -3.40777Q102.26253 -3.1766 102.41424 -2.98877Q102.56594 -2.80094 102.87658 -2.63479Q103.18722 -2.46863 103.7796 -2.22301Q103.82294 -2.20856 103.87351 -2.19412Q103.92408 -2.17967 103.98187 -2.16522Q104.92101 -1.80401 105.54951 -1.36334Q106.17801 -0.92267 106.51032 -0.27972Q106.84263 0.36323 106.84263 1.28792Q106.84263 2.31375 106.33695 3.09396Q105.83126 3.87416 104.93546 4.30039Q104.03967 4.72661 102.89825 4.72661Z" fill="rgb(55, 181, 254)" transform="matrix(1 0 0 1 254.71307 118.013465)"/><path d="M109.37108 4.53878L109.37108 -6.35522L116.10398 -6.35522L116.10398 -4.0146L112.2174 -4.0146L112.2174 -2.29525L115.90171 -2.29525L115.90171 -0.04132L112.2174 -0.04132L112.2174 2.19816L116.17623 2.19816L116.17623 4.53878Z" fill="rgb(55, 181, 254)" transform="matrix(1 0 0 1 254.71307 118.013465)"/><path d="M120.51071 4.72661Q120.09171 4.72661 119.71606 4.54601Q119.3404 4.3654 119.10923 4.04032Q118.87806 3.71523 118.87806 3.29623Q118.87806 2.87723 119.10923 2.54492Q119.3404 2.21261 119.71606 2.02478Q120.09171 1.83695 120.51071 1.83695Q120.92971 1.83695 121.30537 2.02478Q121.68102 2.21261 121.90497 2.54492Q122.12892 2.87723 122.12892 3.29623Q122.12892 3.71523 121.90497 4.04032Q121.68102 4.3654 121.30537 4.54601Q120.92971 4.72661 120.51071 4.72661Z" fill="rgb(55, 181, 254)" transform="matrix(1 0 0 1 254.71307 118.013465)"/></g></g>
<g style="" id="a26639ef-f47b-4b1c-8077-14c011d7036b">
<g style=""><path d="M-99.84876 -18.136L-99.47664 -13.13315Q-94.72187 -18.96292 -86.61808 -18.96292Q-77.97679 -18.96292 -74.75182 -12.14085Q-70.03839 -18.96292 -61.31441 -18.96292Q-54.03754 -18.96292 -50.48179 -14.72497Q-46.92605 -10.48702 -46.92605 -1.96977L-46.92605 26.60022L-58.91635 26.60022L-58.91635 -1.92842Q-58.91635 -5.73224 -60.4048 -7.48944Q-61.89325 -9.24664 -65.65573 -9.24664Q-71.03069 -9.24664 -73.09798 -4.11975L-73.05664 26.60022L-85.00559 26.60022L-85.00559 -1.88708Q-85.00559 -5.77359 -86.53539 -7.51012Q-88.06519 -9.24664 -91.74497 -9.24664Q-96.83051 -9.24664 -99.10453 -5.02936L-99.10453 26.60022L-111.05349 26.60022L-111.05349 -18.136Z" fill="rgb(255, 255, 255)" transform="matrix(0.999998 -0.002074 0.002074 0.999998 217.738547 71.076104)"/><path d="M-10.95515 22.05218Q-15.37915 27.42714 -23.19352 27.42714Q-30.3877 27.42714 -34.17085 23.29255Q-37.954 19.15797 -38.03669 11.17822L-38.03669 -18.136L-26.08773 -18.136L-26.08773 10.76476Q-26.08773 17.75221 -19.72047 17.75221Q-13.64263 17.75221 -11.36861 13.53493L-11.36861 -18.136L0.6217 -18.136L0.6217 26.60022L-10.62438 26.60022Z" fill="rgb(255, 255, 255)" transform="matrix(0.999998 -0.002074 0.002074 0.999998 217.738547 71.076104)"/><path d="M22.24558 26.60022L10.25528 26.60022L10.25528 -36.90703L22.24558 -36.90703Z" fill="rgb(255, 255, 255)" transform="matrix(0.999998 -0.002074 0.002074 0.999998 217.738547 71.076104)"/><path d="M52.67614 27.42714Q42.83582 27.42714 36.65462 21.39064Q30.47341 15.35415 30.47341 5.3071L30.47341 4.14942Q30.47341 -2.58996 33.0782 -7.9029Q35.68299 -13.21585 40.45844 -16.08938Q45.23388 -18.96292 51.35307 -18.96292Q60.53185 -18.96292 65.80345 -13.1745Q71.07505 -7.38608 71.07505 3.23981L71.07505 8.11862L42.58775 8.11862Q43.16659 12.50128 46.08147 15.14742Q48.99636 17.79355 53.46171 17.79355Q60.36647 17.79355 64.25298 12.7907L70.12409 19.3647Q67.43661 23.16852 62.84722 25.29783Q58.25783 27.42714 52.67614 27.42714ZM51.31173 -9.28799Q47.75598 -9.28799 45.54398 -6.88993Q43.33197 -4.49187 42.71179 -0.02651L59.33282 -0.02651L59.33282 -0.97747Q59.25013 -4.94667 57.18284 -7.11733Q55.11555 -9.28799 51.31173 -9.28799Z" fill="rgb(255, 255, 255)" transform="matrix(0.999998 -0.002074 0.002074 0.999998 217.738547 71.076104)"/></g></g>

  </svg>